<svg width="75" height="88" viewBox="0 0 75 88" fill="none" xmlns="http://www.w3.org/2000/svg">
<path d="M8.59999 61.5C8.85999 46.8 18.28 30.72 38.44 31.07C57.17 31.4 64.03 46.11 63.77 60.46C63.72 63.54 63.31 66.27 63.06 67.56L25.71 66.9C26.05 74.38 33.46 78.07 41.88 78.21C48.05 78.32 53.04 77.58 57.93 76L59.89 87.18H74.1V7.1C74.1 3.18 70.92 0 67 0H7.09999C3.17999 0 0 3.18 0 7.1V87.19H21.52C12.96 82.21 8.4 73.23 8.61 61.5H8.59999ZM36.97 8.81C42.78 8.91 46.27 12.89 46.29 17.98C46.2 22.96 42.46 26.93 36.41 26.82C30.72 26.72 27.12 22.62 27.2 17.64C27.29 12.54 31.15 8.7 36.97 8.8V8.81Z" fill="#FCE519"/>
<path d="M37.1501 43.03C29.5601 42.9 26.36 49.84 25.8 54.57L47.14 54.95C47.22 50.56 45.4601 43.18 37.1501 43.04V43.03Z" fill="#FCE519"/>
<path d="M41.8701 78.22C33.4501 78.07 26.0401 74.38 25.7001 66.91L63.0501 67.57C63.3001 66.27 63.7101 63.55 63.7601 60.47C64.0101 46.12 57.1601 31.42 38.4301 31.08C18.2701 30.72 8.85007 46.8 8.59007 61.51C8.38007 73.24 12.94 82.22 21.5 87.2H59.8701L57.91 76.02C53.01 77.59 48.0301 78.34 41.8601 78.23L41.8701 78.22ZM37.1501 43.03C45.4501 43.18 47.2101 50.56 47.1401 54.94L25.8001 54.56C26.3601 49.83 29.5601 42.89 37.1501 43.02V43.03Z" fill="#1C1A18"/>
<path d="M36.6149 28.9883C43.5865 29.1165 47.8963 24.4905 48 18.6876C47.9654 12.7448 43.9553 8.11875 37.2602 8.00222C30.5651 7.8857 26.1171 12.3603 26.0019 18.303C25.8982 24.106 30.0581 28.8835 36.6149 29V28.9883Z" fill="#FCE519"/>
</svg>
