<svg width="74" height="88" viewBox="0 0 74 88" fill="none" xmlns="http://www.w3.org/2000/svg">
<g clip-path="url(#clip0_1_16)">
<path d="M42.0575 82.459C33.2306 82.2975 25.4622 78.3916 25.1027 70.4686L64.2745 71.165C64.5441 69.7924 64.9634 66.9058 65.0233 63.6357C65.2929 48.4257 58.1036 32.8423 38.4628 32.489C17.3242 32.1156 7.44893 49.1524 7.16934 64.746C6.9996 74.5058 9.91526 82.4792 15.5169 88H60.2604L58.8925 80.1174C53.7601 81.7828 48.5279 82.57 42.0575 82.459ZM37.1148 45.1657C45.8219 45.3171 47.6691 53.1391 47.5893 57.7919L25.2125 57.3882C25.7917 52.3721 29.1567 45.0143 37.1148 45.1556V45.1657Z" fill="#FCE519"/>
<path d="M36.9151 8.89185C30.8242 8.78083 26.7702 12.8584 26.6704 18.2581C26.5805 23.5366 30.3649 27.8766 36.326 27.9876C42.6766 28.0986 46.5907 23.9 46.6906 18.6214C46.6606 13.2116 43.0061 9.00287 36.9151 8.89185Z" fill="#FCE519"/>
<path d="M66.9006 0H7.08946C3.17528 0 0 3.20954 0 7.16596V88H9.40602H15.5069C9.90528 82.4691 6.98961 74.5058 7.15936 64.746C7.42896 49.1625 17.3143 32.1156 38.4528 32.489C58.0936 32.8423 65.283 48.4257 65.0134 63.6357C64.9534 66.9058 64.5341 69.7924 64.2645 71.165L25.0927 70.4686C25.4522 78.3916 33.2206 82.3076 42.0475 82.459C48.5179 82.57 53.7501 81.7929 58.8825 80.1174L60.2504 88H69.8661H73.99V7.16596C73.99 3.20954 70.8147 0 66.9006 0ZM36.326 27.9876C30.3649 27.8766 26.5805 23.5366 26.6704 18.2581C26.7602 12.8584 30.8142 8.78082 36.9151 8.89185C43.0161 9.00287 46.6606 13.2116 46.6906 18.6214C46.6007 23.9 42.6766 28.1087 36.326 27.9876Z" fill="#1C1A18"/>
<path d="M37.1148 45.1657C29.1567 45.0244 25.8016 52.3822 25.2125 57.3983L47.5893 57.802C47.6691 53.1492 45.8219 45.3272 37.1148 45.1758V45.1657Z" fill="#1C1A18"/>
</g>
<defs>
<clipPath id="clip0_1_16">
<rect width="74" height="88" fill="white"/>
</clipPath>
</defs>
</svg>
