<svg width="74" height="88" viewBox="0 0 74 88" fill="none" xmlns="http://www.w3.org/2000/svg">
<path d="M42.0632 82.459C33.2351 82.2975 25.4656 78.3916 25.1061 70.4686L64.2831 71.165C64.5528 69.7924 64.9722 66.9058 65.0321 63.6357C65.3018 48.4257 58.1115 32.8423 38.468 32.489C17.3266 32.1156 7.44994 49.1524 7.17031 64.746C7.00054 74.5058 9.9166 82.4792 15.519 88H60.2686L58.9004 80.1174C53.7673 81.7828 48.5344 82.57 42.0632 82.459ZM37.1198 45.1657C45.8281 45.3171 47.6756 53.1391 47.5957 57.7919L25.2159 57.3882C25.7951 52.3721 29.1606 45.0143 37.1198 45.1556V45.1657Z" fill="#1C1A18"/>
<path d="M36.9201 8.89185C30.8283 8.78083 26.7738 12.8584 26.674 18.2581C26.5841 23.5366 30.369 27.8766 36.3309 27.9876C42.6823 28.0986 46.597 23.9 46.6969 18.6214C46.6669 13.2116 43.0119 9.00287 36.9201 8.89185Z" fill="#1C1A18"/>
<path d="M66.9096 0H7.09042C3.17571 0 0 3.20954 0 7.16596V88H9.40729H15.509C9.90661 82.4691 6.99055 74.5058 7.16032 64.746C7.42996 49.1625 17.3166 32.1156 38.458 32.489C58.1015 32.8423 65.2918 48.4257 65.0221 63.6357C64.9622 66.9058 64.5428 69.7924 64.2731 71.165L25.0961 70.4686C25.4556 78.3916 33.2251 82.3076 42.0532 82.459C48.5244 82.57 53.7574 81.7929 58.8904 80.1174L60.2586 88H69.8756H74V7.16596C74 3.20954 70.8243 0 66.9096 0ZM36.3309 27.9876C30.369 27.8766 26.5841 23.5366 26.674 18.2581C26.7638 12.8584 30.8184 8.78082 36.9201 8.89185C43.0219 9.00287 46.6669 13.2116 46.6969 18.6214C46.607 23.9 42.6823 28.1087 36.3309 27.9876Z" fill="#FCE519"/>
<path d="M37.1198 45.1657C29.1606 45.0244 25.8051 52.3822 25.2159 57.3983L47.5957 57.802C47.6756 53.1492 45.8281 45.3272 37.1198 45.1758V45.1657Z" fill="#FCE519"/>
</svg>
